<mxfile host="app.diagrams.net" modified="2024-05-28T06:42:03.944Z" agent="Mozilla/5.0 (X11; Ubuntu; Linux x86_64; rv:125.0) Gecko/20100101 Firefox/125.0" version="24.4.6" etag="a6qc_aFHS28e32Q4a5z1" type="github">
  <diagram name="Page-1" id="xoCh4xKwM5PAYsJ9_TwH">
    <mxGraphModel>
      <root>
        <mxCell id="0" />
        <mxCell id="1" parent="0" />
      </root>
    </mxGraphModel>
  </diagram>
</mxfile>
